<mxfile host="app.diagrams.net" modified="2020-11-09T07:22:00.098Z" agent="5.0 (Macintosh; Intel Mac OS X 10_15_7) AppleWebKit/537.36 (KHTML, like Gecko) Chrome/86.0.4240.183 Safari/537.36" etag="k2Kpa8XT1_rxeNRTfEHz" version="13.9.2" type="github" pages="5">
  <diagram id="cDtTI6Cj9cwN-s0Z0huS" name="系统架构">
    <mxGraphModel dx="2125" dy="786" grid="1" gridSize="10" guides="1" tooltips="1" connect="1" arrows="1" fold="1" page="1" pageScale="1" pageWidth="827" pageHeight="1169" math="0" shadow="0">
      <root>
        <mxCell id="0" />
        <mxCell id="1" parent="0" />
        <mxCell id="Yd8HXsARtUAfKH6x0g5X-38" value="读写" style="edgeStyle=orthogonalEdgeStyle;rounded=0;orthogonalLoop=1;jettySize=auto;html=1;entryX=0;entryY=0.143;entryDx=0;entryDy=0;entryPerimeter=0;" parent="1" source="Yd8HXsARtUAfKH6x0g5X-1" target="Yd8HXsARtUAfKH6x0g5X-29" edge="1">
          <mxGeometry relative="1" as="geometry">
            <Array as="points">
              <mxPoint x="580" y="110" />
              <mxPoint x="580" y="110" />
            </Array>
          </mxGeometry>
        </mxCell>
        <mxCell id="Yd8HXsARtUAfKH6x0g5X-1" value="摄像头管理服务" style="rounded=0;whiteSpace=wrap;html=1;" parent="1" vertex="1">
          <mxGeometry x="110" y="90" width="450" height="40" as="geometry" />
        </mxCell>
        <mxCell id="Yd8HXsARtUAfKH6x0g5X-31" value="调用" style="edgeStyle=orthogonalEdgeStyle;rounded=0;orthogonalLoop=1;jettySize=auto;html=1;entryX=0.5;entryY=0;entryDx=0;entryDy=0;" parent="1" source="Yd8HXsARtUAfKH6x0g5X-4" target="Yd8HXsARtUAfKH6x0g5X-21" edge="1">
          <mxGeometry relative="1" as="geometry" />
        </mxCell>
        <mxCell id="Yd8HXsARtUAfKH6x0g5X-37" style="edgeStyle=orthogonalEdgeStyle;rounded=0;orthogonalLoop=1;jettySize=auto;html=1;entryX=0;entryY=0.5;entryDx=0;entryDy=0;" parent="1" source="Yd8HXsARtUAfKH6x0g5X-4" target="Yd8HXsARtUAfKH6x0g5X-29" edge="1">
          <mxGeometry relative="1" as="geometry" />
        </mxCell>
        <mxCell id="Yd8HXsARtUAfKH6x0g5X-39" value="存储" style="edgeLabel;html=1;align=center;verticalAlign=middle;resizable=0;points=[];" parent="Yd8HXsARtUAfKH6x0g5X-37" vertex="1" connectable="0">
          <mxGeometry x="-0.1385" relative="1" as="geometry">
            <mxPoint as="offset" />
          </mxGeometry>
        </mxCell>
        <mxCell id="Yd8HXsARtUAfKH6x0g5X-4" value="" style="rounded=0;whiteSpace=wrap;html=1;" parent="1" vertex="1">
          <mxGeometry x="110" y="150" width="450" height="200" as="geometry" />
        </mxCell>
        <mxCell id="Yd8HXsARtUAfKH6x0g5X-5" value="&lt;b&gt;&lt;font style=&quot;font-size: 14px&quot;&gt;客流分析模块&lt;/font&gt;&lt;/b&gt;" style="text;html=1;resizable=0;autosize=1;align=center;verticalAlign=middle;points=[];fillColor=none;strokeColor=none;rounded=0;" parent="1" vertex="1">
          <mxGeometry x="285" y="160" width="100" height="20" as="geometry" />
        </mxCell>
        <mxCell id="Yd8HXsARtUAfKH6x0g5X-14" style="edgeStyle=orthogonalEdgeStyle;rounded=0;orthogonalLoop=1;jettySize=auto;html=1;entryX=0;entryY=0.5;entryDx=0;entryDy=0;" parent="1" target="Yd8HXsARtUAfKH6x0g5X-7" edge="1">
          <mxGeometry relative="1" as="geometry">
            <mxPoint x="170" y="215" as="sourcePoint" />
          </mxGeometry>
        </mxCell>
        <mxCell id="Yd8HXsARtUAfKH6x0g5X-15" value="分发" style="edgeLabel;html=1;align=center;verticalAlign=middle;resizable=0;points=[];" parent="Yd8HXsARtUAfKH6x0g5X-14" vertex="1" connectable="0">
          <mxGeometry x="0.0333" y="-4" relative="1" as="geometry">
            <mxPoint as="offset" />
          </mxGeometry>
        </mxCell>
        <mxCell id="Yd8HXsARtUAfKH6x0g5X-6" value="人像网关服务" style="rounded=0;whiteSpace=wrap;html=1;" parent="1" vertex="1">
          <mxGeometry x="140" y="185" width="30" height="150" as="geometry" />
        </mxCell>
        <mxCell id="Yd8HXsARtUAfKH6x0g5X-16" value="" style="edgeStyle=orthogonalEdgeStyle;rounded=0;orthogonalLoop=1;jettySize=auto;html=1;" parent="1" source="Yd8HXsARtUAfKH6x0g5X-7" target="Yd8HXsARtUAfKH6x0g5X-8" edge="1">
          <mxGeometry relative="1" as="geometry" />
        </mxCell>
        <mxCell id="Yd8HXsARtUAfKH6x0g5X-17" value="去重/识别" style="edgeLabel;html=1;align=center;verticalAlign=middle;resizable=0;points=[];" parent="Yd8HXsARtUAfKH6x0g5X-16" vertex="1" connectable="0">
          <mxGeometry x="0.44" relative="1" as="geometry">
            <mxPoint as="offset" />
          </mxGeometry>
        </mxCell>
        <mxCell id="Yd8HXsARtUAfKH6x0g5X-18" style="edgeStyle=orthogonalEdgeStyle;rounded=0;orthogonalLoop=1;jettySize=auto;html=1;entryX=0.386;entryY=1.025;entryDx=0;entryDy=0;entryPerimeter=0;" parent="1" source="Yd8HXsARtUAfKH6x0g5X-7" target="Yd8HXsARtUAfKH6x0g5X-1" edge="1">
          <mxGeometry relative="1" as="geometry" />
        </mxCell>
        <mxCell id="Yd8HXsARtUAfKH6x0g5X-19" value="调用" style="edgeLabel;html=1;align=center;verticalAlign=middle;resizable=0;points=[];" parent="Yd8HXsARtUAfKH6x0g5X-18" vertex="1" connectable="0">
          <mxGeometry x="0.0221" y="1" relative="1" as="geometry">
            <mxPoint as="offset" />
          </mxGeometry>
        </mxCell>
        <mxCell id="Yd8HXsARtUAfKH6x0g5X-20" value="身份识别" style="edgeStyle=orthogonalEdgeStyle;rounded=0;orthogonalLoop=1;jettySize=auto;html=1;entryX=0.008;entryY=0.207;entryDx=0;entryDy=0;entryPerimeter=0;" parent="1" source="Yd8HXsARtUAfKH6x0g5X-7" target="Yd8HXsARtUAfKH6x0g5X-9" edge="1">
          <mxGeometry relative="1" as="geometry">
            <Array as="points">
              <mxPoint x="380" y="215" />
              <mxPoint x="380" y="215" />
            </Array>
          </mxGeometry>
        </mxCell>
        <mxCell id="Yd8HXsARtUAfKH6x0g5X-7" value="客流分析服务" style="rounded=0;whiteSpace=wrap;html=1;" parent="1" vertex="1">
          <mxGeometry x="230" y="185" width="120" height="60" as="geometry" />
        </mxCell>
        <mxCell id="Yd8HXsARtUAfKH6x0g5X-8" value="多级识别库" style="rounded=0;whiteSpace=wrap;html=1;" parent="1" vertex="1">
          <mxGeometry x="230" y="275" width="120" height="60" as="geometry" />
        </mxCell>
        <mxCell id="Yd8HXsARtUAfKH6x0g5X-9" value="百万人脸识别服务（EFB）" style="rounded=0;whiteSpace=wrap;html=1;" parent="1" vertex="1">
          <mxGeometry x="414" y="185" width="120" height="145" as="geometry" />
        </mxCell>
        <mxCell id="Yd8HXsARtUAfKH6x0g5X-11" style="edgeStyle=orthogonalEdgeStyle;rounded=0;orthogonalLoop=1;jettySize=auto;html=1;exitX=0.5;exitY=1;exitDx=0;exitDy=0;" parent="1" source="Yd8HXsARtUAfKH6x0g5X-4" target="Yd8HXsARtUAfKH6x0g5X-4" edge="1">
          <mxGeometry relative="1" as="geometry" />
        </mxCell>
        <mxCell id="Yd8HXsARtUAfKH6x0g5X-12" value="摄像头人像上报" style="endArrow=classic;html=1;entryX=0;entryY=0.193;entryDx=0;entryDy=0;entryPerimeter=0;" parent="1" target="Yd8HXsARtUAfKH6x0g5X-6" edge="1">
          <mxGeometry relative="1" as="geometry">
            <mxPoint x="-30" y="214" as="sourcePoint" />
            <mxPoint x="115" y="214.5" as="targetPoint" />
          </mxGeometry>
        </mxCell>
        <mxCell id="Yd8HXsARtUAfKH6x0g5X-21" value="" style="rounded=0;whiteSpace=wrap;html=1;" parent="1" vertex="1">
          <mxGeometry x="110" y="370" width="450" height="90" as="geometry" />
        </mxCell>
        <mxCell id="Yd8HXsARtUAfKH6x0g5X-22" value="特征提取服务" style="rounded=0;whiteSpace=wrap;html=1;" parent="1" vertex="1">
          <mxGeometry x="120" y="410" width="90" height="30" as="geometry" />
        </mxCell>
        <mxCell id="Yd8HXsARtUAfKH6x0g5X-23" value="&lt;font style=&quot;font-size: 14px&quot;&gt;&lt;b&gt;AI能力模块&lt;/b&gt;&lt;/font&gt;" style="text;html=1;resizable=0;autosize=1;align=center;verticalAlign=middle;points=[];fillColor=none;strokeColor=none;rounded=0;" parent="1" vertex="1">
          <mxGeometry x="290" y="380" width="90" height="20" as="geometry" />
        </mxCell>
        <mxCell id="Yd8HXsARtUAfKH6x0g5X-25" value="年龄性别服务" style="rounded=0;whiteSpace=wrap;html=1;" parent="1" vertex="1">
          <mxGeometry x="300" y="410" width="80" height="30" as="geometry" />
        </mxCell>
        <mxCell id="Yd8HXsARtUAfKH6x0g5X-26" value="眼镜配饰识别" style="rounded=0;whiteSpace=wrap;html=1;" parent="1" vertex="1">
          <mxGeometry x="385" y="410" width="80" height="30" as="geometry" />
        </mxCell>
        <mxCell id="Yd8HXsARtUAfKH6x0g5X-27" value="表情识别服务" style="rounded=0;whiteSpace=wrap;html=1;" parent="1" vertex="1">
          <mxGeometry x="470" y="410" width="80" height="30" as="geometry" />
        </mxCell>
        <mxCell id="Yd8HXsARtUAfKH6x0g5X-29" value="" style="rounded=0;whiteSpace=wrap;html=1;" parent="1" vertex="1">
          <mxGeometry x="610" y="90" width="150" height="140" as="geometry" />
        </mxCell>
        <mxCell id="Yd8HXsARtUAfKH6x0g5X-32" value="&lt;b&gt;&lt;font style=&quot;font-size: 14px&quot;&gt;持久化模块&lt;/font&gt;&lt;/b&gt;" style="text;html=1;resizable=0;autosize=1;align=center;verticalAlign=middle;points=[];fillColor=none;strokeColor=none;rounded=0;" parent="1" vertex="1">
          <mxGeometry x="640" y="100" width="90" height="20" as="geometry" />
        </mxCell>
        <mxCell id="Yd8HXsARtUAfKH6x0g5X-34" value="关系数据库" style="whiteSpace=wrap;html=1;aspect=fixed;" parent="1" vertex="1">
          <mxGeometry x="630" y="130" width="40" height="40" as="geometry" />
        </mxCell>
        <mxCell id="Yd8HXsARtUAfKH6x0g5X-35" value="非关系数据库" style="whiteSpace=wrap;html=1;aspect=fixed;" parent="1" vertex="1">
          <mxGeometry x="700" y="130" width="40" height="40" as="geometry" />
        </mxCell>
        <mxCell id="Yd8HXsARtUAfKH6x0g5X-36" value="对象存储" style="rounded=0;whiteSpace=wrap;html=1;" parent="1" vertex="1">
          <mxGeometry x="630" y="185" width="110" height="30" as="geometry" />
        </mxCell>
        <mxCell id="Yd8HXsARtUAfKH6x0g5X-52" value="读写" style="edgeStyle=orthogonalEdgeStyle;rounded=0;orthogonalLoop=1;jettySize=auto;html=1;entryX=0.5;entryY=1;entryDx=0;entryDy=0;" parent="1" source="Yd8HXsARtUAfKH6x0g5X-42" target="Yd8HXsARtUAfKH6x0g5X-29" edge="1">
          <mxGeometry relative="1" as="geometry" />
        </mxCell>
        <mxCell id="Yd8HXsARtUAfKH6x0g5X-42" value="" style="rounded=0;whiteSpace=wrap;html=1;" parent="1" vertex="1">
          <mxGeometry x="610" y="270" width="150" height="190" as="geometry" />
        </mxCell>
        <mxCell id="Yd8HXsARtUAfKH6x0g5X-43" value="实时数据分析服务" style="rounded=0;whiteSpace=wrap;html=1;" parent="1" vertex="1">
          <mxGeometry x="625" y="310" width="120" height="35" as="geometry" />
        </mxCell>
        <mxCell id="Yd8HXsARtUAfKH6x0g5X-44" value="离线计算服务" style="rounded=0;whiteSpace=wrap;html=1;" parent="1" vertex="1">
          <mxGeometry x="625" y="360" width="120" height="35" as="geometry" />
        </mxCell>
        <mxCell id="Yd8HXsARtUAfKH6x0g5X-45" value="&lt;b&gt;&lt;font style=&quot;font-size: 14px&quot;&gt;分布式数据分析模块&lt;/font&gt;&lt;/b&gt;" style="text;html=1;resizable=0;autosize=1;align=center;verticalAlign=middle;points=[];fillColor=none;strokeColor=none;rounded=0;" parent="1" vertex="1">
          <mxGeometry x="615" y="275" width="140" height="20" as="geometry" />
        </mxCell>
        <mxCell id="Yd8HXsARtUAfKH6x0g5X-46" value="数据统计API服务" style="rounded=0;whiteSpace=wrap;html=1;" parent="1" vertex="1">
          <mxGeometry x="625" y="410" width="120" height="35" as="geometry" />
        </mxCell>
        <mxCell id="NtB92WP9G7jGH6Iq94dK-1" value="行人重识别" style="rounded=0;whiteSpace=wrap;html=1;" vertex="1" parent="1">
          <mxGeometry x="215" y="410" width="80" height="30" as="geometry" />
        </mxCell>
      </root>
    </mxGraphModel>
  </diagram>
  <diagram id="UaLHSBAiNROoTbuJ-uBz" name="功能架构图">
    <mxGraphModel dx="1298" dy="786" grid="1" gridSize="10" guides="1" tooltips="1" connect="1" arrows="1" fold="1" page="1" pageScale="1" pageWidth="827" pageHeight="1169" math="0" shadow="0">
      <root>
        <mxCell id="3NFzVa8QxVXrFNWOmPV5-0" />
        <mxCell id="3NFzVa8QxVXrFNWOmPV5-1" parent="3NFzVa8QxVXrFNWOmPV5-0" />
        <mxCell id="3NFzVa8QxVXrFNWOmPV5-2" value="" style="rounded=0;whiteSpace=wrap;html=1;" vertex="1" parent="3NFzVa8QxVXrFNWOmPV5-1">
          <mxGeometry x="79" y="160" width="911" height="370" as="geometry" />
        </mxCell>
        <mxCell id="3NFzVa8QxVXrFNWOmPV5-3" value="&lt;b&gt;&lt;font style=&quot;font-size: 15px&quot;&gt;智慧人脸客流系统&lt;/font&gt;&lt;/b&gt;" style="text;html=1;resizable=0;autosize=1;align=center;verticalAlign=middle;points=[];fillColor=none;strokeColor=none;rounded=0;" vertex="1" parent="3NFzVa8QxVXrFNWOmPV5-1">
          <mxGeometry x="484.5" y="170" width="140" height="20" as="geometry" />
        </mxCell>
        <mxCell id="3NFzVa8QxVXrFNWOmPV5-4" value="" style="rounded=0;whiteSpace=wrap;html=1;" vertex="1" parent="3NFzVa8QxVXrFNWOmPV5-1">
          <mxGeometry x="90" y="200" width="710" height="230" as="geometry" />
        </mxCell>
        <mxCell id="3NFzVa8QxVXrFNWOmPV5-5" value="&lt;b&gt;&lt;font style=&quot;font-size: 14px&quot;&gt;五大核心业务&lt;/font&gt;&lt;/b&gt;" style="text;html=1;resizable=0;autosize=1;align=center;verticalAlign=middle;points=[];fillColor=none;strokeColor=none;rounded=0;" vertex="1" parent="3NFzVa8QxVXrFNWOmPV5-1">
          <mxGeometry x="395" y="200" width="100" height="20" as="geometry" />
        </mxCell>
        <mxCell id="3NFzVa8QxVXrFNWOmPV5-6" value="" style="rounded=0;whiteSpace=wrap;html=1;" vertex="1" parent="3NFzVa8QxVXrFNWOmPV5-1">
          <mxGeometry x="100" y="240" width="120" height="180" as="geometry" />
        </mxCell>
        <mxCell id="3NFzVa8QxVXrFNWOmPV5-7" value="&lt;b&gt;&lt;font style=&quot;font-size: 14px&quot;&gt;客流分析&lt;/font&gt;&lt;/b&gt;" style="text;html=1;resizable=0;autosize=1;align=center;verticalAlign=middle;points=[];fillColor=none;strokeColor=none;rounded=0;" vertex="1" parent="3NFzVa8QxVXrFNWOmPV5-1">
          <mxGeometry x="125" y="240" width="70" height="20" as="geometry" />
        </mxCell>
        <mxCell id="3NFzVa8QxVXrFNWOmPV5-8" value="商场客流" style="rounded=0;whiteSpace=wrap;html=1;" vertex="1" parent="3NFzVa8QxVXrFNWOmPV5-1">
          <mxGeometry x="110" y="270" width="100" height="20" as="geometry" />
        </mxCell>
        <mxCell id="3NFzVa8QxVXrFNWOmPV5-11" value="业态客流" style="rounded=0;whiteSpace=wrap;html=1;" vertex="1" parent="3NFzVa8QxVXrFNWOmPV5-1">
          <mxGeometry x="110" y="300" width="100" height="20" as="geometry" />
        </mxCell>
        <mxCell id="3NFzVa8QxVXrFNWOmPV5-12" value="店铺客流" style="rounded=0;whiteSpace=wrap;html=1;" vertex="1" parent="3NFzVa8QxVXrFNWOmPV5-1">
          <mxGeometry x="110" y="330" width="100" height="20" as="geometry" />
        </mxCell>
        <mxCell id="3NFzVa8QxVXrFNWOmPV5-13" value="区域客流" style="rounded=0;whiteSpace=wrap;html=1;" vertex="1" parent="3NFzVa8QxVXrFNWOmPV5-1">
          <mxGeometry x="110" y="360" width="100" height="20" as="geometry" />
        </mxCell>
        <mxCell id="3NFzVa8QxVXrFNWOmPV5-14" value="楼层客流" style="rounded=0;whiteSpace=wrap;html=1;" vertex="1" parent="3NFzVa8QxVXrFNWOmPV5-1">
          <mxGeometry x="110" y="390" width="100" height="20" as="geometry" />
        </mxCell>
        <mxCell id="3NFzVa8QxVXrFNWOmPV5-15" value="" style="rounded=0;whiteSpace=wrap;html=1;" vertex="1" parent="3NFzVa8QxVXrFNWOmPV5-1">
          <mxGeometry x="240" y="240" width="120" height="180" as="geometry" />
        </mxCell>
        <mxCell id="3NFzVa8QxVXrFNWOmPV5-16" value="&lt;span style=&quot;font-size: 14px&quot;&gt;&lt;b&gt;顾客画像&lt;/b&gt;&lt;/span&gt;" style="text;html=1;resizable=0;autosize=1;align=center;verticalAlign=middle;points=[];fillColor=none;strokeColor=none;rounded=0;" vertex="1" parent="3NFzVa8QxVXrFNWOmPV5-1">
          <mxGeometry x="265" y="240" width="70" height="20" as="geometry" />
        </mxCell>
        <mxCell id="3NFzVa8QxVXrFNWOmPV5-17" value="新老客识别" style="rounded=0;whiteSpace=wrap;html=1;" vertex="1" parent="3NFzVa8QxVXrFNWOmPV5-1">
          <mxGeometry x="249.5" y="270" width="100" height="20" as="geometry" />
        </mxCell>
        <mxCell id="3NFzVa8QxVXrFNWOmPV5-18" value="特殊人员识别" style="rounded=0;whiteSpace=wrap;html=1;" vertex="1" parent="3NFzVa8QxVXrFNWOmPV5-1">
          <mxGeometry x="249.5" y="300" width="100" height="20" as="geometry" />
        </mxCell>
        <mxCell id="3NFzVa8QxVXrFNWOmPV5-19" value="表情识别" style="rounded=0;whiteSpace=wrap;html=1;" vertex="1" parent="3NFzVa8QxVXrFNWOmPV5-1">
          <mxGeometry x="249.5" y="330" width="100" height="20" as="geometry" />
        </mxCell>
        <mxCell id="3NFzVa8QxVXrFNWOmPV5-20" value="配饰识别" style="rounded=0;whiteSpace=wrap;html=1;" vertex="1" parent="3NFzVa8QxVXrFNWOmPV5-1">
          <mxGeometry x="250" y="360" width="100" height="20" as="geometry" />
        </mxCell>
        <mxCell id="3NFzVa8QxVXrFNWOmPV5-21" value="性别年龄识别" style="rounded=0;whiteSpace=wrap;html=1;" vertex="1" parent="3NFzVa8QxVXrFNWOmPV5-1">
          <mxGeometry x="250" y="390" width="100" height="20" as="geometry" />
        </mxCell>
        <mxCell id="3NFzVa8QxVXrFNWOmPV5-22" value="" style="rounded=0;whiteSpace=wrap;html=1;" vertex="1" parent="3NFzVa8QxVXrFNWOmPV5-1">
          <mxGeometry x="380" y="240" width="120" height="180" as="geometry" />
        </mxCell>
        <mxCell id="3NFzVa8QxVXrFNWOmPV5-23" value="&lt;span style=&quot;font-size: 14px&quot;&gt;&lt;b&gt;经营分析&lt;/b&gt;&lt;/span&gt;" style="text;html=1;resizable=0;autosize=1;align=center;verticalAlign=middle;points=[];fillColor=none;strokeColor=none;rounded=0;" vertex="1" parent="3NFzVa8QxVXrFNWOmPV5-1">
          <mxGeometry x="405" y="240" width="70" height="20" as="geometry" />
        </mxCell>
        <mxCell id="3NFzVa8QxVXrFNWOmPV5-24" value="店铺关联分析" style="rounded=0;whiteSpace=wrap;html=1;" vertex="1" parent="3NFzVa8QxVXrFNWOmPV5-1">
          <mxGeometry x="389.5" y="280" width="100" height="20" as="geometry" />
        </mxCell>
        <mxCell id="3NFzVa8QxVXrFNWOmPV5-25" value="活动引流分析" style="rounded=0;whiteSpace=wrap;html=1;" vertex="1" parent="3NFzVa8QxVXrFNWOmPV5-1">
          <mxGeometry x="389.5" y="330" width="100" height="20" as="geometry" />
        </mxCell>
        <mxCell id="3NFzVa8QxVXrFNWOmPV5-26" value="顾客流量态势分析" style="rounded=0;whiteSpace=wrap;html=1;" vertex="1" parent="3NFzVa8QxVXrFNWOmPV5-1">
          <mxGeometry x="390" y="380" width="100" height="20" as="geometry" />
        </mxCell>
        <mxCell id="3NFzVa8QxVXrFNWOmPV5-28" value="" style="rounded=0;whiteSpace=wrap;html=1;" vertex="1" parent="3NFzVa8QxVXrFNWOmPV5-1">
          <mxGeometry x="520" y="240" width="120" height="180" as="geometry" />
        </mxCell>
        <mxCell id="3NFzVa8QxVXrFNWOmPV5-29" value="&lt;span style=&quot;font-size: 14px&quot;&gt;&lt;b&gt;数据可视化&lt;/b&gt;&lt;/span&gt;" style="text;html=1;resizable=0;autosize=1;align=center;verticalAlign=middle;points=[];fillColor=none;strokeColor=none;rounded=0;" vertex="1" parent="3NFzVa8QxVXrFNWOmPV5-1">
          <mxGeometry x="535" y="240" width="90" height="20" as="geometry" />
        </mxCell>
        <mxCell id="3NFzVa8QxVXrFNWOmPV5-30" value="3D数据大屏" style="rounded=0;whiteSpace=wrap;html=1;" vertex="1" parent="3NFzVa8QxVXrFNWOmPV5-1">
          <mxGeometry x="530" y="270" width="100" height="20" as="geometry" />
        </mxCell>
        <mxCell id="3NFzVa8QxVXrFNWOmPV5-31" value="顾客轨迹追踪" style="rounded=0;whiteSpace=wrap;html=1;" vertex="1" parent="3NFzVa8QxVXrFNWOmPV5-1">
          <mxGeometry x="530" y="300" width="100" height="20" as="geometry" />
        </mxCell>
        <mxCell id="3NFzVa8QxVXrFNWOmPV5-32" value="楼层动线" style="rounded=0;whiteSpace=wrap;html=1;" vertex="1" parent="3NFzVa8QxVXrFNWOmPV5-1">
          <mxGeometry x="530" y="330" width="100" height="20" as="geometry" />
        </mxCell>
        <mxCell id="3NFzVa8QxVXrFNWOmPV5-33" value="实时巡店" style="rounded=0;whiteSpace=wrap;html=1;" vertex="1" parent="3NFzVa8QxVXrFNWOmPV5-1">
          <mxGeometry x="530" y="360" width="100" height="20" as="geometry" />
        </mxCell>
        <mxCell id="3NFzVa8QxVXrFNWOmPV5-34" value="客流小程序" style="rounded=0;whiteSpace=wrap;html=1;" vertex="1" parent="3NFzVa8QxVXrFNWOmPV5-1">
          <mxGeometry x="530" y="390" width="100" height="20" as="geometry" />
        </mxCell>
        <mxCell id="3NFzVa8QxVXrFNWOmPV5-35" value="" style="rounded=0;whiteSpace=wrap;html=1;" vertex="1" parent="3NFzVa8QxVXrFNWOmPV5-1">
          <mxGeometry x="820" y="200" width="160" height="230" as="geometry" />
        </mxCell>
        <mxCell id="3NFzVa8QxVXrFNWOmPV5-36" value="&lt;b&gt;&lt;font style=&quot;font-size: 14px&quot;&gt;用户管理&lt;/font&gt;&lt;/b&gt;" style="text;html=1;resizable=0;autosize=1;align=center;verticalAlign=middle;points=[];fillColor=none;strokeColor=none;rounded=0;" vertex="1" parent="3NFzVa8QxVXrFNWOmPV5-1">
          <mxGeometry x="865" y="210" width="70" height="20" as="geometry" />
        </mxCell>
        <mxCell id="3NFzVa8QxVXrFNWOmPV5-37" value="权限设置" style="rounded=0;whiteSpace=wrap;html=1;" vertex="1" parent="3NFzVa8QxVXrFNWOmPV5-1">
          <mxGeometry x="840" y="240" width="120" height="40" as="geometry" />
        </mxCell>
        <mxCell id="3NFzVa8QxVXrFNWOmPV5-39" value="角色管理" style="rounded=0;whiteSpace=wrap;html=1;" vertex="1" parent="3NFzVa8QxVXrFNWOmPV5-1">
          <mxGeometry x="840" y="285" width="120" height="40" as="geometry" />
        </mxCell>
        <mxCell id="3NFzVa8QxVXrFNWOmPV5-40" value="用户管理" style="rounded=0;whiteSpace=wrap;html=1;" vertex="1" parent="3NFzVa8QxVXrFNWOmPV5-1">
          <mxGeometry x="840" y="330" width="120" height="40" as="geometry" />
        </mxCell>
        <mxCell id="3NFzVa8QxVXrFNWOmPV5-41" value="用户操作纪录" style="rounded=0;whiteSpace=wrap;html=1;" vertex="1" parent="3NFzVa8QxVXrFNWOmPV5-1">
          <mxGeometry x="840" y="380" width="120" height="40" as="geometry" />
        </mxCell>
        <mxCell id="3NFzVa8QxVXrFNWOmPV5-42" value="" style="rounded=0;whiteSpace=wrap;html=1;" vertex="1" parent="3NFzVa8QxVXrFNWOmPV5-1">
          <mxGeometry x="90" y="440" width="710" height="80" as="geometry" />
        </mxCell>
        <mxCell id="3NFzVa8QxVXrFNWOmPV5-43" value="&lt;b&gt;&lt;font style=&quot;font-size: 14px&quot;&gt;系统设置&lt;/font&gt;&lt;/b&gt;" style="text;html=1;resizable=0;autosize=1;align=center;verticalAlign=middle;points=[];fillColor=none;strokeColor=none;rounded=0;" vertex="1" parent="3NFzVa8QxVXrFNWOmPV5-1">
          <mxGeometry x="404.5" y="440" width="70" height="20" as="geometry" />
        </mxCell>
        <mxCell id="3NFzVa8QxVXrFNWOmPV5-53" value="" style="rounded=0;whiteSpace=wrap;html=1;" vertex="1" parent="3NFzVa8QxVXrFNWOmPV5-1">
          <mxGeometry x="660" y="240" width="120" height="180" as="geometry" />
        </mxCell>
        <mxCell id="3NFzVa8QxVXrFNWOmPV5-54" value="&lt;span style=&quot;font-size: 14px&quot;&gt;&lt;b&gt;数据报表&lt;br&gt;&lt;/b&gt;&lt;/span&gt;" style="text;html=1;resizable=0;autosize=1;align=center;verticalAlign=middle;points=[];fillColor=none;strokeColor=none;rounded=0;" vertex="1" parent="3NFzVa8QxVXrFNWOmPV5-1">
          <mxGeometry x="685" y="240" width="70" height="20" as="geometry" />
        </mxCell>
        <mxCell id="3NFzVa8QxVXrFNWOmPV5-55" value="自定义取数" style="rounded=0;whiteSpace=wrap;html=1;" vertex="1" parent="3NFzVa8QxVXrFNWOmPV5-1">
          <mxGeometry x="670" y="280" width="100" height="20" as="geometry" />
        </mxCell>
        <mxCell id="3NFzVa8QxVXrFNWOmPV5-56" value="报表管理" style="rounded=0;whiteSpace=wrap;html=1;" vertex="1" parent="3NFzVa8QxVXrFNWOmPV5-1">
          <mxGeometry x="670" y="330" width="100" height="20" as="geometry" />
        </mxCell>
        <mxCell id="3NFzVa8QxVXrFNWOmPV5-58" value="报表下载" style="rounded=0;whiteSpace=wrap;html=1;" vertex="1" parent="3NFzVa8QxVXrFNWOmPV5-1">
          <mxGeometry x="670" y="380" width="100" height="20" as="geometry" />
        </mxCell>
        <mxCell id="3NFzVa8QxVXrFNWOmPV5-61" value="摄像头设置" style="rounded=0;whiteSpace=wrap;html=1;" vertex="1" parent="3NFzVa8QxVXrFNWOmPV5-1">
          <mxGeometry x="115" y="470" width="80" height="30" as="geometry" />
        </mxCell>
        <mxCell id="3NFzVa8QxVXrFNWOmPV5-62" value="楼层设置" style="rounded=0;whiteSpace=wrap;html=1;" vertex="1" parent="3NFzVa8QxVXrFNWOmPV5-1">
          <mxGeometry x="220" y="470" width="80" height="30" as="geometry" />
        </mxCell>
        <mxCell id="3NFzVa8QxVXrFNWOmPV5-63" value="店铺设置" style="rounded=0;whiteSpace=wrap;html=1;" vertex="1" parent="3NFzVa8QxVXrFNWOmPV5-1">
          <mxGeometry x="315" y="470" width="80" height="30" as="geometry" />
        </mxCell>
        <mxCell id="3NFzVa8QxVXrFNWOmPV5-64" value="业态设置" style="rounded=0;whiteSpace=wrap;html=1;" vertex="1" parent="3NFzVa8QxVXrFNWOmPV5-1">
          <mxGeometry x="414" y="470" width="80" height="30" as="geometry" />
        </mxCell>
        <mxCell id="3NFzVa8QxVXrFNWOmPV5-65" value="区域设置" style="rounded=0;whiteSpace=wrap;html=1;" vertex="1" parent="3NFzVa8QxVXrFNWOmPV5-1">
          <mxGeometry x="510" y="470" width="80" height="30" as="geometry" />
        </mxCell>
        <mxCell id="3NFzVa8QxVXrFNWOmPV5-66" value="客流纬度设置" style="rounded=0;whiteSpace=wrap;html=1;" vertex="1" parent="3NFzVa8QxVXrFNWOmPV5-1">
          <mxGeometry x="605" y="470" width="80" height="30" as="geometry" />
        </mxCell>
        <mxCell id="3NFzVa8QxVXrFNWOmPV5-67" value="识别参数设置" style="rounded=0;whiteSpace=wrap;html=1;" vertex="1" parent="3NFzVa8QxVXrFNWOmPV5-1">
          <mxGeometry x="700" y="470" width="80" height="30" as="geometry" />
        </mxCell>
        <mxCell id="3NFzVa8QxVXrFNWOmPV5-68" value="" style="rounded=0;whiteSpace=wrap;html=1;" vertex="1" parent="3NFzVa8QxVXrFNWOmPV5-1">
          <mxGeometry x="820" y="440" width="160" height="80" as="geometry" />
        </mxCell>
        <mxCell id="3NFzVa8QxVXrFNWOmPV5-69" value="&lt;b&gt;&lt;font style=&quot;font-size: 14px&quot;&gt;通知告警&lt;/font&gt;&lt;/b&gt;" style="text;html=1;resizable=0;autosize=1;align=center;verticalAlign=middle;points=[];fillColor=none;strokeColor=none;rounded=0;" vertex="1" parent="3NFzVa8QxVXrFNWOmPV5-1">
          <mxGeometry x="865" y="440" width="70" height="20" as="geometry" />
        </mxCell>
        <mxCell id="3NFzVa8QxVXrFNWOmPV5-70" value="设备告警" style="rounded=0;whiteSpace=wrap;html=1;" vertex="1" parent="3NFzVa8QxVXrFNWOmPV5-1">
          <mxGeometry x="827" y="470" width="63" height="40" as="geometry" />
        </mxCell>
        <mxCell id="3NFzVa8QxVXrFNWOmPV5-72" value="用户通知" style="rounded=0;whiteSpace=wrap;html=1;" vertex="1" parent="3NFzVa8QxVXrFNWOmPV5-1">
          <mxGeometry x="910" y="470" width="63" height="40" as="geometry" />
        </mxCell>
      </root>
    </mxGraphModel>
  </diagram>
  <diagram id="_cnMTHdPjwbo7CFYrLeM" name="分层架构">
    <mxGraphModel dx="1298" dy="786" grid="1" gridSize="10" guides="1" tooltips="1" connect="1" arrows="1" fold="1" page="1" pageScale="1" pageWidth="827" pageHeight="1169" math="0" shadow="0">
      <root>
        <mxCell id="O0KcUKKlDIcMq-G7B2qq-0" />
        <mxCell id="O0KcUKKlDIcMq-G7B2qq-1" parent="O0KcUKKlDIcMq-G7B2qq-0" />
        <mxCell id="O0KcUKKlDIcMq-G7B2qq-2" value="" style="rounded=0;whiteSpace=wrap;html=1;" parent="O0KcUKKlDIcMq-G7B2qq-1" vertex="1">
          <mxGeometry x="90" y="201" width="670" height="60" as="geometry" />
        </mxCell>
        <mxCell id="O0KcUKKlDIcMq-G7B2qq-3" value="客流统计分析WEB端" style="rounded=0;whiteSpace=wrap;html=1;" parent="O0KcUKKlDIcMq-G7B2qq-1" vertex="1">
          <mxGeometry x="240" y="211" width="120" height="40" as="geometry" />
        </mxCell>
        <mxCell id="O0KcUKKlDIcMq-G7B2qq-4" value="客流小程序" style="rounded=0;whiteSpace=wrap;html=1;" parent="O0KcUKKlDIcMq-G7B2qq-1" vertex="1">
          <mxGeometry x="430" y="211" width="120" height="40" as="geometry" />
        </mxCell>
        <mxCell id="O0KcUKKlDIcMq-G7B2qq-5" value="智慧大屏" style="rounded=0;whiteSpace=wrap;html=1;" parent="O0KcUKKlDIcMq-G7B2qq-1" vertex="1">
          <mxGeometry x="620" y="211" width="120" height="40" as="geometry" />
        </mxCell>
        <mxCell id="O0KcUKKlDIcMq-G7B2qq-6" value="" style="rounded=0;whiteSpace=wrap;html=1;" parent="O0KcUKKlDIcMq-G7B2qq-1" vertex="1">
          <mxGeometry x="90" y="275" width="670" height="60" as="geometry" />
        </mxCell>
        <mxCell id="O0KcUKKlDIcMq-G7B2qq-7" value="人像网关服务" style="rounded=0;whiteSpace=wrap;html=1;" parent="O0KcUKKlDIcMq-G7B2qq-1" vertex="1">
          <mxGeometry x="240" y="285" width="120" height="40" as="geometry" />
        </mxCell>
        <mxCell id="jKkcJ0DuXFg7N6aR_TE1-0" value="负载均衡" style="rounded=0;whiteSpace=wrap;html=1;" parent="O0KcUKKlDIcMq-G7B2qq-1" vertex="1">
          <mxGeometry x="430" y="285" width="120" height="40" as="geometry" />
        </mxCell>
        <mxCell id="jKkcJ0DuXFg7N6aR_TE1-1" value="数据统计API服务" style="rounded=0;whiteSpace=wrap;html=1;" parent="O0KcUKKlDIcMq-G7B2qq-1" vertex="1">
          <mxGeometry x="620" y="285" width="120" height="40" as="geometry" />
        </mxCell>
        <mxCell id="2H57ozLj33nepQtOHTrX-0" value="&lt;font style=&quot;font-size: 15px&quot;&gt;&lt;b&gt;用户表示层&lt;/b&gt;&lt;/font&gt;" style="text;html=1;resizable=0;autosize=1;align=center;verticalAlign=middle;points=[];fillColor=none;strokeColor=none;rounded=0;" parent="O0KcUKKlDIcMq-G7B2qq-1" vertex="1">
          <mxGeometry x="110" y="221" width="90" height="20" as="geometry" />
        </mxCell>
        <mxCell id="2H57ozLj33nepQtOHTrX-1" value="" style="rounded=0;whiteSpace=wrap;html=1;" parent="O0KcUKKlDIcMq-G7B2qq-1" vertex="1">
          <mxGeometry x="90" y="350" width="670" height="160" as="geometry" />
        </mxCell>
        <mxCell id="2H57ozLj33nepQtOHTrX-2" value="客流分析服务" style="rounded=0;whiteSpace=wrap;html=1;" parent="O0KcUKKlDIcMq-G7B2qq-1" vertex="1">
          <mxGeometry x="240" y="360" width="120" height="60" as="geometry" />
        </mxCell>
        <mxCell id="2H57ozLj33nepQtOHTrX-3" value="多级识别库服务" style="rounded=0;whiteSpace=wrap;html=1;" parent="O0KcUKKlDIcMq-G7B2qq-1" vertex="1">
          <mxGeometry x="240" y="435" width="120" height="60" as="geometry" />
        </mxCell>
        <mxCell id="EGOLSkdavmpJdH7-5tC8-0" value="百万人脸识别服务&lt;br&gt;（EFB）" style="rounded=0;whiteSpace=wrap;html=1;" parent="O0KcUKKlDIcMq-G7B2qq-1" vertex="1">
          <mxGeometry x="430" y="360" width="120" height="60" as="geometry" />
        </mxCell>
        <mxCell id="kEVnmKhz2y50-D_UUYiv-0" value="实时数据分析服务" style="rounded=0;whiteSpace=wrap;html=1;" parent="O0KcUKKlDIcMq-G7B2qq-1" vertex="1">
          <mxGeometry x="620" y="360" width="120" height="60" as="geometry" />
        </mxCell>
        <mxCell id="5dyFep1cVsDEwLRKAV61-0" value="离线计算服务" style="rounded=0;whiteSpace=wrap;html=1;" parent="O0KcUKKlDIcMq-G7B2qq-1" vertex="1">
          <mxGeometry x="620" y="435" width="120" height="60" as="geometry" />
        </mxCell>
        <mxCell id="4IbHf-rLRrxaSH2p7SJU-0" value="&lt;font style=&quot;font-size: 15px&quot;&gt;&lt;b&gt;分发层&lt;/b&gt;&lt;/font&gt;" style="text;html=1;resizable=0;autosize=1;align=center;verticalAlign=middle;points=[];fillColor=none;strokeColor=none;rounded=0;" parent="O0KcUKKlDIcMq-G7B2qq-1" vertex="1">
          <mxGeometry x="125" y="295" width="60" height="20" as="geometry" />
        </mxCell>
        <mxCell id="4IbHf-rLRrxaSH2p7SJU-1" value="&lt;font style=&quot;font-size: 15px&quot;&gt;&lt;b&gt;业务逻辑层&lt;/b&gt;&lt;/font&gt;" style="text;html=1;resizable=0;autosize=1;align=center;verticalAlign=middle;points=[];fillColor=none;strokeColor=none;rounded=0;" parent="O0KcUKKlDIcMq-G7B2qq-1" vertex="1">
          <mxGeometry x="110" y="415" width="90" height="20" as="geometry" />
        </mxCell>
        <mxCell id="4IbHf-rLRrxaSH2p7SJU-2" value="" style="rounded=0;whiteSpace=wrap;html=1;" parent="O0KcUKKlDIcMq-G7B2qq-1" vertex="1">
          <mxGeometry x="90" y="528" width="670" height="62" as="geometry" />
        </mxCell>
        <mxCell id="4IbHf-rLRrxaSH2p7SJU-3" value="特征提取服务" style="rounded=0;whiteSpace=wrap;html=1;" parent="O0KcUKKlDIcMq-G7B2qq-1" vertex="1">
          <mxGeometry x="240" y="539" width="90" height="40" as="geometry" />
        </mxCell>
        <mxCell id="4IbHf-rLRrxaSH2p7SJU-4" value="配饰检测服务" style="rounded=0;whiteSpace=wrap;html=1;" parent="O0KcUKKlDIcMq-G7B2qq-1" vertex="1">
          <mxGeometry x="350" y="539" width="90" height="40" as="geometry" />
        </mxCell>
        <mxCell id="4IbHf-rLRrxaSH2p7SJU-5" value="年龄性别服务" style="rounded=0;whiteSpace=wrap;html=1;" parent="O0KcUKKlDIcMq-G7B2qq-1" vertex="1">
          <mxGeometry x="550" y="539" width="90" height="40" as="geometry" />
        </mxCell>
        <mxCell id="4IbHf-rLRrxaSH2p7SJU-6" value="表情识别服务" style="rounded=0;whiteSpace=wrap;html=1;" parent="O0KcUKKlDIcMq-G7B2qq-1" vertex="1">
          <mxGeometry x="650" y="539" width="90" height="40" as="geometry" />
        </mxCell>
        <mxCell id="4IbHf-rLRrxaSH2p7SJU-7" value="&lt;span style=&quot;font-size: 15px&quot;&gt;&lt;b&gt;AI能力层&lt;/b&gt;&lt;/span&gt;" style="text;html=1;resizable=0;autosize=1;align=center;verticalAlign=middle;points=[];fillColor=none;strokeColor=none;rounded=0;" parent="O0KcUKKlDIcMq-G7B2qq-1" vertex="1">
          <mxGeometry x="115" y="549" width="80" height="20" as="geometry" />
        </mxCell>
        <mxCell id="4IbHf-rLRrxaSH2p7SJU-8" value="" style="rounded=0;whiteSpace=wrap;html=1;" parent="O0KcUKKlDIcMq-G7B2qq-1" vertex="1">
          <mxGeometry x="90" y="608" width="670" height="62" as="geometry" />
        </mxCell>
        <mxCell id="4IbHf-rLRrxaSH2p7SJU-9" value="&lt;span style=&quot;font-size: 15px&quot;&gt;&lt;b&gt;存储层&lt;/b&gt;&lt;/span&gt;" style="text;html=1;resizable=0;autosize=1;align=center;verticalAlign=middle;points=[];fillColor=none;strokeColor=none;rounded=0;" parent="O0KcUKKlDIcMq-G7B2qq-1" vertex="1">
          <mxGeometry x="125" y="629" width="60" height="20" as="geometry" />
        </mxCell>
        <mxCell id="4IbHf-rLRrxaSH2p7SJU-10" value="关系数据库" style="rounded=0;whiteSpace=wrap;html=1;" parent="O0KcUKKlDIcMq-G7B2qq-1" vertex="1">
          <mxGeometry x="240" y="619" width="120" height="40" as="geometry" />
        </mxCell>
        <mxCell id="4IbHf-rLRrxaSH2p7SJU-11" value="非关系数据库" style="rounded=0;whiteSpace=wrap;html=1;" parent="O0KcUKKlDIcMq-G7B2qq-1" vertex="1">
          <mxGeometry x="430" y="619" width="120" height="40" as="geometry" />
        </mxCell>
        <mxCell id="4IbHf-rLRrxaSH2p7SJU-12" value="对象存储" style="rounded=0;whiteSpace=wrap;html=1;" parent="O0KcUKKlDIcMq-G7B2qq-1" vertex="1">
          <mxGeometry x="620" y="619" width="120" height="40" as="geometry" />
        </mxCell>
        <mxCell id="4IbHf-rLRrxaSH2p7SJU-14" value="摄像头管理服务" style="rounded=0;whiteSpace=wrap;html=1;" parent="O0KcUKKlDIcMq-G7B2qq-1" vertex="1">
          <mxGeometry x="430" y="435" width="120" height="60" as="geometry" />
        </mxCell>
        <mxCell id="Fhx2lXYXrFlcVKl4X8Bu-0" value="行人重识别" style="rounded=0;whiteSpace=wrap;html=1;" vertex="1" parent="O0KcUKKlDIcMq-G7B2qq-1">
          <mxGeometry x="450" y="539" width="90" height="40" as="geometry" />
        </mxCell>
      </root>
    </mxGraphModel>
  </diagram>
  <diagram name="逻辑架构" id="Iy4W2C8zdogFTpd8fkEG">
    <mxGraphModel dx="1298" dy="786" grid="1" gridSize="10" guides="1" tooltips="1" connect="1" arrows="1" fold="1" page="1" pageScale="1" pageWidth="827" pageHeight="1169" math="0" shadow="0">
      <root>
        <mxCell id="c0NtRJMB-YRE9ULwZq7j-0" />
        <mxCell id="c0NtRJMB-YRE9ULwZq7j-1" parent="c0NtRJMB-YRE9ULwZq7j-0" />
        <mxCell id="c0NtRJMB-YRE9ULwZq7j-2" value="" style="rounded=0;whiteSpace=wrap;html=1;" vertex="1" parent="c0NtRJMB-YRE9ULwZq7j-1">
          <mxGeometry x="90" y="201" width="670" height="60" as="geometry" />
        </mxCell>
        <mxCell id="c0NtRJMB-YRE9ULwZq7j-3" value="客流统计分析WEB端" style="rounded=0;whiteSpace=wrap;html=1;" vertex="1" parent="c0NtRJMB-YRE9ULwZq7j-1">
          <mxGeometry x="365" y="211" width="120" height="40" as="geometry" />
        </mxCell>
        <mxCell id="c0NtRJMB-YRE9ULwZq7j-4" value="客流小程序" style="rounded=0;whiteSpace=wrap;html=1;" vertex="1" parent="c0NtRJMB-YRE9ULwZq7j-1">
          <mxGeometry x="520" y="211" width="95" height="40" as="geometry" />
        </mxCell>
        <mxCell id="c0NtRJMB-YRE9ULwZq7j-5" value="智慧大屏" style="rounded=0;whiteSpace=wrap;html=1;" vertex="1" parent="c0NtRJMB-YRE9ULwZq7j-1">
          <mxGeometry x="650" y="211" width="90" height="40" as="geometry" />
        </mxCell>
        <mxCell id="c0NtRJMB-YRE9ULwZq7j-6" value="" style="rounded=0;whiteSpace=wrap;html=1;" vertex="1" parent="c0NtRJMB-YRE9ULwZq7j-1">
          <mxGeometry x="90" y="275" width="670" height="60" as="geometry" />
        </mxCell>
        <mxCell id="c0NtRJMB-YRE9ULwZq7j-7" value="人像网关服务" style="rounded=0;whiteSpace=wrap;html=1;" vertex="1" parent="c0NtRJMB-YRE9ULwZq7j-1">
          <mxGeometry x="240" y="285" width="120" height="40" as="geometry" />
        </mxCell>
        <mxCell id="c0NtRJMB-YRE9ULwZq7j-57" style="edgeStyle=orthogonalEdgeStyle;rounded=0;orthogonalLoop=1;jettySize=auto;html=1;entryX=0.575;entryY=1.075;entryDx=0;entryDy=0;entryPerimeter=0;" edge="1" parent="c0NtRJMB-YRE9ULwZq7j-1" source="c0NtRJMB-YRE9ULwZq7j-8" target="c0NtRJMB-YRE9ULwZq7j-3">
          <mxGeometry relative="1" as="geometry" />
        </mxCell>
        <mxCell id="c0NtRJMB-YRE9ULwZq7j-58" style="edgeStyle=orthogonalEdgeStyle;rounded=0;orthogonalLoop=1;jettySize=auto;html=1;entryX=0.5;entryY=1;entryDx=0;entryDy=0;" edge="1" parent="c0NtRJMB-YRE9ULwZq7j-1" source="c0NtRJMB-YRE9ULwZq7j-8" target="c0NtRJMB-YRE9ULwZq7j-4">
          <mxGeometry relative="1" as="geometry" />
        </mxCell>
        <mxCell id="c0NtRJMB-YRE9ULwZq7j-59" style="edgeStyle=orthogonalEdgeStyle;rounded=0;orthogonalLoop=1;jettySize=auto;html=1;entryX=0.91;entryY=0.817;entryDx=0;entryDy=0;entryPerimeter=0;" edge="1" parent="c0NtRJMB-YRE9ULwZq7j-1" source="c0NtRJMB-YRE9ULwZq7j-8" target="c0NtRJMB-YRE9ULwZq7j-2">
          <mxGeometry relative="1" as="geometry" />
        </mxCell>
        <mxCell id="c0NtRJMB-YRE9ULwZq7j-8" value="负载均衡" style="rounded=0;whiteSpace=wrap;html=1;" vertex="1" parent="c0NtRJMB-YRE9ULwZq7j-1">
          <mxGeometry x="430" y="285" width="120" height="40" as="geometry" />
        </mxCell>
        <mxCell id="c0NtRJMB-YRE9ULwZq7j-56" style="edgeStyle=orthogonalEdgeStyle;rounded=0;orthogonalLoop=1;jettySize=auto;html=1;" edge="1" parent="c0NtRJMB-YRE9ULwZq7j-1" source="c0NtRJMB-YRE9ULwZq7j-9" target="c0NtRJMB-YRE9ULwZq7j-8">
          <mxGeometry relative="1" as="geometry" />
        </mxCell>
        <mxCell id="c0NtRJMB-YRE9ULwZq7j-9" value="数据统计API服务" style="rounded=0;whiteSpace=wrap;html=1;" vertex="1" parent="c0NtRJMB-YRE9ULwZq7j-1">
          <mxGeometry x="620" y="285" width="120" height="40" as="geometry" />
        </mxCell>
        <mxCell id="c0NtRJMB-YRE9ULwZq7j-10" value="&lt;font style=&quot;font-size: 15px&quot;&gt;&lt;b&gt;用户表示层&lt;/b&gt;&lt;/font&gt;" style="text;html=1;resizable=0;autosize=1;align=center;verticalAlign=middle;points=[];fillColor=none;strokeColor=none;rounded=0;" vertex="1" parent="c0NtRJMB-YRE9ULwZq7j-1">
          <mxGeometry x="110" y="221" width="90" height="20" as="geometry" />
        </mxCell>
        <mxCell id="c0NtRJMB-YRE9ULwZq7j-11" value="" style="rounded=0;whiteSpace=wrap;html=1;" vertex="1" parent="c0NtRJMB-YRE9ULwZq7j-1">
          <mxGeometry x="90" y="350" width="670" height="180" as="geometry" />
        </mxCell>
        <mxCell id="c0NtRJMB-YRE9ULwZq7j-15" value="实时数据分析服务" style="rounded=0;whiteSpace=wrap;html=1;" vertex="1" parent="c0NtRJMB-YRE9ULwZq7j-1">
          <mxGeometry x="670" y="366.25" width="60" height="60" as="geometry" />
        </mxCell>
        <mxCell id="c0NtRJMB-YRE9ULwZq7j-16" value="离线计算服务" style="rounded=0;whiteSpace=wrap;html=1;" vertex="1" parent="c0NtRJMB-YRE9ULwZq7j-1">
          <mxGeometry x="670" y="435" width="60" height="60" as="geometry" />
        </mxCell>
        <mxCell id="c0NtRJMB-YRE9ULwZq7j-17" value="&lt;font style=&quot;font-size: 15px&quot;&gt;&lt;b&gt;分发层&lt;/b&gt;&lt;/font&gt;" style="text;html=1;resizable=0;autosize=1;align=center;verticalAlign=middle;points=[];fillColor=none;strokeColor=none;rounded=0;" vertex="1" parent="c0NtRJMB-YRE9ULwZq7j-1">
          <mxGeometry x="125" y="295" width="60" height="20" as="geometry" />
        </mxCell>
        <mxCell id="c0NtRJMB-YRE9ULwZq7j-18" value="&lt;font style=&quot;font-size: 15px&quot;&gt;&lt;b&gt;业务逻辑层&lt;/b&gt;&lt;/font&gt;" style="text;html=1;resizable=0;autosize=1;align=center;verticalAlign=middle;points=[];fillColor=none;strokeColor=none;rounded=0;" vertex="1" parent="c0NtRJMB-YRE9ULwZq7j-1">
          <mxGeometry x="110" y="415" width="90" height="20" as="geometry" />
        </mxCell>
        <mxCell id="c0NtRJMB-YRE9ULwZq7j-53" style="edgeStyle=orthogonalEdgeStyle;rounded=0;orthogonalLoop=1;jettySize=auto;html=1;entryX=0.5;entryY=1;entryDx=0;entryDy=0;" edge="1" parent="c0NtRJMB-YRE9ULwZq7j-1" source="c0NtRJMB-YRE9ULwZq7j-25" target="c0NtRJMB-YRE9ULwZq7j-11">
          <mxGeometry relative="1" as="geometry" />
        </mxCell>
        <mxCell id="c0NtRJMB-YRE9ULwZq7j-25" value="" style="rounded=0;whiteSpace=wrap;html=1;" vertex="1" parent="c0NtRJMB-YRE9ULwZq7j-1">
          <mxGeometry x="90" y="550" width="670" height="62" as="geometry" />
        </mxCell>
        <mxCell id="c0NtRJMB-YRE9ULwZq7j-26" value="&lt;span style=&quot;font-size: 15px&quot;&gt;&lt;b&gt;存储层&lt;/b&gt;&lt;/span&gt;" style="text;html=1;resizable=0;autosize=1;align=center;verticalAlign=middle;points=[];fillColor=none;strokeColor=none;rounded=0;" vertex="1" parent="c0NtRJMB-YRE9ULwZq7j-1">
          <mxGeometry x="125" y="571" width="60" height="20" as="geometry" />
        </mxCell>
        <mxCell id="c0NtRJMB-YRE9ULwZq7j-27" value="关系数据库" style="rounded=0;whiteSpace=wrap;html=1;" vertex="1" parent="c0NtRJMB-YRE9ULwZq7j-1">
          <mxGeometry x="240" y="561" width="120" height="40" as="geometry" />
        </mxCell>
        <mxCell id="c0NtRJMB-YRE9ULwZq7j-28" value="非关系数据库" style="rounded=0;whiteSpace=wrap;html=1;" vertex="1" parent="c0NtRJMB-YRE9ULwZq7j-1">
          <mxGeometry x="430" y="561" width="120" height="40" as="geometry" />
        </mxCell>
        <mxCell id="c0NtRJMB-YRE9ULwZq7j-29" value="对象存储" style="rounded=0;whiteSpace=wrap;html=1;" vertex="1" parent="c0NtRJMB-YRE9ULwZq7j-1">
          <mxGeometry x="620" y="561" width="120" height="40" as="geometry" />
        </mxCell>
        <mxCell id="c0NtRJMB-YRE9ULwZq7j-54" style="edgeStyle=orthogonalEdgeStyle;rounded=0;orthogonalLoop=1;jettySize=auto;html=1;entryX=1;entryY=0.5;entryDx=0;entryDy=0;" edge="1" parent="c0NtRJMB-YRE9ULwZq7j-1" source="c0NtRJMB-YRE9ULwZq7j-31" target="c0NtRJMB-YRE9ULwZq7j-39">
          <mxGeometry relative="1" as="geometry" />
        </mxCell>
        <mxCell id="c0NtRJMB-YRE9ULwZq7j-31" value="" style="rounded=0;whiteSpace=wrap;html=1;" vertex="1" parent="c0NtRJMB-YRE9ULwZq7j-1">
          <mxGeometry x="520" y="362.5" width="130" height="150" as="geometry" />
        </mxCell>
        <mxCell id="c0NtRJMB-YRE9ULwZq7j-32" value="特征提取服务" style="rounded=0;whiteSpace=wrap;html=1;" vertex="1" parent="c0NtRJMB-YRE9ULwZq7j-1">
          <mxGeometry x="530" y="380" width="90" height="20" as="geometry" />
        </mxCell>
        <mxCell id="c0NtRJMB-YRE9ULwZq7j-33" value="配饰检测服务" style="rounded=0;whiteSpace=wrap;html=1;" vertex="1" parent="c0NtRJMB-YRE9ULwZq7j-1">
          <mxGeometry x="530" y="410" width="90" height="20" as="geometry" />
        </mxCell>
        <mxCell id="c0NtRJMB-YRE9ULwZq7j-34" value="年龄性别服务" style="rounded=0;whiteSpace=wrap;html=1;" vertex="1" parent="c0NtRJMB-YRE9ULwZq7j-1">
          <mxGeometry x="530" y="440" width="90" height="20" as="geometry" />
        </mxCell>
        <mxCell id="c0NtRJMB-YRE9ULwZq7j-35" value="表情识别服务" style="rounded=0;whiteSpace=wrap;html=1;" vertex="1" parent="c0NtRJMB-YRE9ULwZq7j-1">
          <mxGeometry x="530" y="470" width="90" height="20" as="geometry" />
        </mxCell>
        <mxCell id="c0NtRJMB-YRE9ULwZq7j-38" value="&lt;span style=&quot;font-size: 15px&quot;&gt;&lt;b&gt;AI&lt;br&gt;能&lt;br&gt;力&lt;/b&gt;&lt;/span&gt;" style="text;html=1;resizable=0;autosize=1;align=center;verticalAlign=middle;points=[];fillColor=none;strokeColor=none;rounded=0;" vertex="1" parent="c0NtRJMB-YRE9ULwZq7j-1">
          <mxGeometry x="620" y="405" width="30" height="50" as="geometry" />
        </mxCell>
        <mxCell id="c0NtRJMB-YRE9ULwZq7j-39" value="" style="rounded=0;whiteSpace=wrap;html=1;" vertex="1" parent="c0NtRJMB-YRE9ULwZq7j-1">
          <mxGeometry x="240" y="360" width="260" height="155" as="geometry" />
        </mxCell>
        <mxCell id="c0NtRJMB-YRE9ULwZq7j-14" value="百万人脸识别服务&lt;br&gt;（EFB）" style="rounded=0;whiteSpace=wrap;html=1;" vertex="1" parent="c0NtRJMB-YRE9ULwZq7j-1">
          <mxGeometry x="250" y="366.25" width="120" height="40" as="geometry" />
        </mxCell>
        <mxCell id="c0NtRJMB-YRE9ULwZq7j-13" value="多级识别库服务" style="rounded=0;whiteSpace=wrap;html=1;" vertex="1" parent="c0NtRJMB-YRE9ULwZq7j-1">
          <mxGeometry x="250" y="416.25" width="120" height="40" as="geometry" />
        </mxCell>
        <mxCell id="c0NtRJMB-YRE9ULwZq7j-30" value="摄像头管理服务" style="rounded=0;whiteSpace=wrap;html=1;" vertex="1" parent="c0NtRJMB-YRE9ULwZq7j-1">
          <mxGeometry x="250" y="463.75" width="120" height="45" as="geometry" />
        </mxCell>
        <mxCell id="c0NtRJMB-YRE9ULwZq7j-12" value="客流&lt;br&gt;分析&lt;br&gt;服务" style="rounded=0;whiteSpace=wrap;html=1;" vertex="1" parent="c0NtRJMB-YRE9ULwZq7j-1">
          <mxGeometry x="385" y="387.5" width="60" height="100" as="geometry" />
        </mxCell>
        <mxCell id="c0NtRJMB-YRE9ULwZq7j-40" value="&lt;span style=&quot;font-size: 15px&quot;&gt;&lt;b&gt;业&lt;br&gt;务&lt;br&gt;计&lt;br&gt;算&lt;/b&gt;&lt;/span&gt;" style="text;html=1;resizable=0;autosize=1;align=center;verticalAlign=middle;points=[];fillColor=none;strokeColor=none;rounded=0;" vertex="1" parent="c0NtRJMB-YRE9ULwZq7j-1">
          <mxGeometry x="460" y="402.5" width="30" height="70" as="geometry" />
        </mxCell>
        <mxCell id="c0NtRJMB-YRE9ULwZq7j-42" style="edgeStyle=orthogonalEdgeStyle;rounded=0;orthogonalLoop=1;jettySize=auto;html=1;entryX=0.396;entryY=0.125;entryDx=0;entryDy=0;entryPerimeter=0;" edge="1" parent="c0NtRJMB-YRE9ULwZq7j-1" source="c0NtRJMB-YRE9ULwZq7j-41" target="c0NtRJMB-YRE9ULwZq7j-7">
          <mxGeometry relative="1" as="geometry" />
        </mxCell>
        <mxCell id="c0NtRJMB-YRE9ULwZq7j-41" value="摄像头硬件" style="rounded=0;whiteSpace=wrap;html=1;" vertex="1" parent="c0NtRJMB-YRE9ULwZq7j-1">
          <mxGeometry x="240" y="211" width="95" height="40" as="geometry" />
        </mxCell>
        <mxCell id="c0NtRJMB-YRE9ULwZq7j-43" style="edgeStyle=orthogonalEdgeStyle;rounded=0;orthogonalLoop=1;jettySize=auto;html=1;entryX=0.5;entryY=0;entryDx=0;entryDy=0;" edge="1" parent="c0NtRJMB-YRE9ULwZq7j-1" source="c0NtRJMB-YRE9ULwZq7j-7" target="c0NtRJMB-YRE9ULwZq7j-12">
          <mxGeometry relative="1" as="geometry" />
        </mxCell>
      </root>
    </mxGraphModel>
  </diagram>
  <diagram id="P4g2vtLjbExkkTJE-QcF" name="数据架构">
    <mxGraphModel dx="1298" dy="786" grid="1" gridSize="10" guides="1" tooltips="1" connect="1" arrows="1" fold="1" page="1" pageScale="1" pageWidth="827" pageHeight="1169" math="0" shadow="0">
      <root>
        <mxCell id="_E1DJ1xyI4-SarhDE-Af-0" />
        <mxCell id="_E1DJ1xyI4-SarhDE-Af-1" parent="_E1DJ1xyI4-SarhDE-Af-0" />
        <mxCell id="_E1DJ1xyI4-SarhDE-Af-2" style="edgeStyle=orthogonalEdgeStyle;rounded=0;orthogonalLoop=1;jettySize=auto;html=1;entryX=0.438;entryY=0;entryDx=0;entryDy=0;entryPerimeter=0;" parent="_E1DJ1xyI4-SarhDE-Af-1" source="_E1DJ1xyI4-SarhDE-Af-15" target="_E1DJ1xyI4-SarhDE-Af-19" edge="1">
          <mxGeometry relative="1" as="geometry" />
        </mxCell>
        <mxCell id="_E1DJ1xyI4-SarhDE-Af-3" style="edgeStyle=orthogonalEdgeStyle;rounded=0;orthogonalLoop=1;jettySize=auto;html=1;entryX=0;entryY=0.5;entryDx=0;entryDy=0;" parent="_E1DJ1xyI4-SarhDE-Af-1" source="_E1DJ1xyI4-SarhDE-Af-15" target="_E1DJ1xyI4-SarhDE-Af-25" edge="1">
          <mxGeometry relative="1" as="geometry" />
        </mxCell>
        <mxCell id="_E1DJ1xyI4-SarhDE-Af-4" style="edgeStyle=orthogonalEdgeStyle;rounded=0;orthogonalLoop=1;jettySize=auto;html=1;exitX=1;exitY=0.5;exitDx=0;exitDy=0;entryX=0;entryY=0.5;entryDx=0;entryDy=0;" parent="_E1DJ1xyI4-SarhDE-Af-1" source="_E1DJ1xyI4-SarhDE-Af-10" target="_E1DJ1xyI4-SarhDE-Af-19" edge="1">
          <mxGeometry relative="1" as="geometry" />
        </mxCell>
        <mxCell id="_E1DJ1xyI4-SarhDE-Af-5" value="摄像头表" style="swimlane;fontStyle=0;childLayout=stackLayout;horizontal=1;startSize=26;fillColor=none;horizontalStack=0;resizeParent=1;resizeParentMax=0;resizeLast=0;collapsible=1;marginBottom=0;" parent="_E1DJ1xyI4-SarhDE-Af-1" vertex="1">
          <mxGeometry x="330" y="630" width="180" height="260" as="geometry">
            <mxRectangle x="40" y="130" width="70" height="26" as="alternateBounds" />
          </mxGeometry>
        </mxCell>
        <mxCell id="_E1DJ1xyI4-SarhDE-Af-6" value="id（PK）              int(11)" style="text;strokeColor=none;fillColor=none;align=left;verticalAlign=top;spacingLeft=4;spacingRight=4;overflow=hidden;rotatable=0;points=[[0,0.5],[1,0.5]];portConstraint=eastwest;" parent="_E1DJ1xyI4-SarhDE-Af-5" vertex="1">
          <mxGeometry y="26" width="180" height="26" as="geometry" />
        </mxCell>
        <mxCell id="_E1DJ1xyI4-SarhDE-Af-7" value="name                    string(64)" style="text;strokeColor=none;fillColor=none;align=left;verticalAlign=top;spacingLeft=4;spacingRight=4;overflow=hidden;rotatable=0;points=[[0,0.5],[1,0.5]];portConstraint=eastwest;" parent="_E1DJ1xyI4-SarhDE-Af-5" vertex="1">
          <mxGeometry y="52" width="180" height="26" as="geometry" />
        </mxCell>
        <mxCell id="_E1DJ1xyI4-SarhDE-Af-8" value="mac                      string(64)" style="text;strokeColor=none;fillColor=none;align=left;verticalAlign=top;spacingLeft=4;spacingRight=4;overflow=hidden;rotatable=0;points=[[0,0.5],[1,0.5]];portConstraint=eastwest;" parent="_E1DJ1xyI4-SarhDE-Af-5" vertex="1">
          <mxGeometry y="78" width="180" height="26" as="geometry" />
        </mxCell>
        <mxCell id="_E1DJ1xyI4-SarhDE-Af-9" value="floor_id                  int(11)" style="text;strokeColor=none;fillColor=none;align=left;verticalAlign=top;spacingLeft=4;spacingRight=4;overflow=hidden;rotatable=0;points=[[0,0.5],[1,0.5]];portConstraint=eastwest;" parent="_E1DJ1xyI4-SarhDE-Af-5" vertex="1">
          <mxGeometry y="104" width="180" height="26" as="geometry" />
        </mxCell>
        <mxCell id="_E1DJ1xyI4-SarhDE-Af-10" value="coordinate             text" style="text;strokeColor=none;fillColor=none;align=left;verticalAlign=top;spacingLeft=4;spacingRight=4;overflow=hidden;rotatable=0;points=[[0,0.5],[1,0.5]];portConstraint=eastwest;" parent="_E1DJ1xyI4-SarhDE-Af-5" vertex="1">
          <mxGeometry y="130" width="180" height="26" as="geometry" />
        </mxCell>
        <mxCell id="_E1DJ1xyI4-SarhDE-Af-11" value="enable                  int(11)" style="text;strokeColor=none;fillColor=none;align=left;verticalAlign=top;spacingLeft=4;spacingRight=4;overflow=hidden;rotatable=0;points=[[0,0.5],[1,0.5]];portConstraint=eastwest;" parent="_E1DJ1xyI4-SarhDE-Af-5" vertex="1">
          <mxGeometry y="156" width="180" height="26" as="geometry" />
        </mxCell>
        <mxCell id="_E1DJ1xyI4-SarhDE-Af-12" value="rtsp_id                  string(255)" style="text;strokeColor=none;fillColor=none;align=left;verticalAlign=top;spacingLeft=4;spacingRight=4;overflow=hidden;rotatable=0;points=[[0,0.5],[1,0.5]];portConstraint=eastwest;" parent="_E1DJ1xyI4-SarhDE-Af-5" vertex="1">
          <mxGeometry y="182" width="180" height="26" as="geometry" />
        </mxCell>
        <mxCell id="_E1DJ1xyI4-SarhDE-Af-13" value="rtsp_status           int(11)" style="text;strokeColor=none;fillColor=none;align=left;verticalAlign=top;spacingLeft=4;spacingRight=4;overflow=hidden;rotatable=0;points=[[0,0.5],[1,0.5]];portConstraint=eastwest;" parent="_E1DJ1xyI4-SarhDE-Af-5" vertex="1">
          <mxGeometry y="208" width="180" height="26" as="geometry" />
        </mxCell>
        <mxCell id="_E1DJ1xyI4-SarhDE-Af-14" value="mall_id(商场id)     int(11)" style="text;strokeColor=none;fillColor=none;align=left;verticalAlign=top;spacingLeft=4;spacingRight=4;overflow=hidden;rotatable=0;points=[[0,0.5],[1,0.5]];portConstraint=eastwest;" parent="_E1DJ1xyI4-SarhDE-Af-5" vertex="1">
          <mxGeometry y="234" width="180" height="26" as="geometry" />
        </mxCell>
        <mxCell id="_E1DJ1xyI4-SarhDE-Af-15" value="摄像头组表" style="swimlane;fontStyle=0;childLayout=stackLayout;horizontal=1;startSize=26;fillColor=none;horizontalStack=0;resizeParent=1;resizeParentMax=0;resizeLast=0;collapsible=1;marginBottom=0;" parent="_E1DJ1xyI4-SarhDE-Af-1" vertex="1">
          <mxGeometry x="620" y="630" width="140" height="104" as="geometry" />
        </mxCell>
        <mxCell id="_E1DJ1xyI4-SarhDE-Af-16" value="id（PK）          int(11)" style="text;strokeColor=none;fillColor=none;align=left;verticalAlign=top;spacingLeft=4;spacingRight=4;overflow=hidden;rotatable=0;points=[[0,0.5],[1,0.5]];portConstraint=eastwest;" parent="_E1DJ1xyI4-SarhDE-Af-15" vertex="1">
          <mxGeometry y="26" width="140" height="26" as="geometry" />
        </mxCell>
        <mxCell id="_E1DJ1xyI4-SarhDE-Af-17" value="name               string(64)" style="text;strokeColor=none;fillColor=none;align=left;verticalAlign=top;spacingLeft=4;spacingRight=4;overflow=hidden;rotatable=0;points=[[0,0.5],[1,0.5]];portConstraint=eastwest;" parent="_E1DJ1xyI4-SarhDE-Af-15" vertex="1">
          <mxGeometry y="52" width="140" height="26" as="geometry" />
        </mxCell>
        <mxCell id="_E1DJ1xyI4-SarhDE-Af-18" value="mall_id             int(11)" style="text;strokeColor=none;fillColor=none;align=left;verticalAlign=top;spacingLeft=4;spacingRight=4;overflow=hidden;rotatable=0;points=[[0,0.5],[1,0.5]];portConstraint=eastwest;" parent="_E1DJ1xyI4-SarhDE-Af-15" vertex="1">
          <mxGeometry y="78" width="140" height="26" as="geometry" />
        </mxCell>
        <mxCell id="_E1DJ1xyI4-SarhDE-Af-19" value="摄像头组关联摄像头表" style="swimlane;fontStyle=0;childLayout=stackLayout;horizontal=1;startSize=26;fillColor=none;horizontalStack=0;resizeParent=1;resizeParentMax=0;resizeLast=0;collapsible=1;marginBottom=0;" parent="_E1DJ1xyI4-SarhDE-Af-1" vertex="1">
          <mxGeometry x="620" y="786" width="160" height="104" as="geometry" />
        </mxCell>
        <mxCell id="_E1DJ1xyI4-SarhDE-Af-20" value="id（PK）              int(11)" style="text;strokeColor=none;fillColor=none;align=left;verticalAlign=top;spacingLeft=4;spacingRight=4;overflow=hidden;rotatable=0;points=[[0,0.5],[1,0.5]];portConstraint=eastwest;" parent="_E1DJ1xyI4-SarhDE-Af-19" vertex="1">
          <mxGeometry y="26" width="160" height="26" as="geometry" />
        </mxCell>
        <mxCell id="_E1DJ1xyI4-SarhDE-Af-21" value="set_id                   int(11)" style="text;strokeColor=none;fillColor=none;align=left;verticalAlign=top;spacingLeft=4;spacingRight=4;overflow=hidden;rotatable=0;points=[[0,0.5],[1,0.5]];portConstraint=eastwest;" parent="_E1DJ1xyI4-SarhDE-Af-19" vertex="1">
          <mxGeometry y="52" width="160" height="26" as="geometry" />
        </mxCell>
        <mxCell id="_E1DJ1xyI4-SarhDE-Af-22" value="camera_id            int(11)" style="text;strokeColor=none;fillColor=none;align=left;verticalAlign=top;spacingLeft=4;spacingRight=4;overflow=hidden;rotatable=0;points=[[0,0.5],[1,0.5]];portConstraint=eastwest;" parent="_E1DJ1xyI4-SarhDE-Af-19" vertex="1">
          <mxGeometry y="78" width="160" height="26" as="geometry" />
        </mxCell>
        <mxCell id="_E1DJ1xyI4-SarhDE-Af-23" value="实体表" style="swimlane;fontStyle=0;childLayout=stackLayout;horizontal=1;startSize=26;fillColor=none;horizontalStack=0;resizeParent=1;resizeParentMax=0;resizeLast=0;collapsible=1;marginBottom=0;" parent="_E1DJ1xyI4-SarhDE-Af-1" vertex="1">
          <mxGeometry x="860" y="630" width="140" height="208" as="geometry" />
        </mxCell>
        <mxCell id="_E1DJ1xyI4-SarhDE-Af-24" value="id（PK）           int(11)" style="text;strokeColor=none;fillColor=none;align=left;verticalAlign=top;spacingLeft=4;spacingRight=4;overflow=hidden;rotatable=0;points=[[0,0.5],[1,0.5]];portConstraint=eastwest;" parent="_E1DJ1xyI4-SarhDE-Af-23" vertex="1">
          <mxGeometry y="26" width="140" height="26" as="geometry" />
        </mxCell>
        <mxCell id="_E1DJ1xyI4-SarhDE-Af-25" value="in_set                int(11)" style="text;strokeColor=none;fillColor=none;align=left;verticalAlign=top;spacingLeft=4;spacingRight=4;overflow=hidden;rotatable=0;points=[[0,0.5],[1,0.5]];portConstraint=eastwest;" parent="_E1DJ1xyI4-SarhDE-Af-23" vertex="1">
          <mxGeometry y="52" width="140" height="26" as="geometry" />
        </mxCell>
        <mxCell id="_E1DJ1xyI4-SarhDE-Af-26" value="out_set              int(11)" style="text;strokeColor=none;fillColor=none;align=left;verticalAlign=top;spacingLeft=4;spacingRight=4;overflow=hidden;rotatable=0;points=[[0,0.5],[1,0.5]];portConstraint=eastwest;" parent="_E1DJ1xyI4-SarhDE-Af-23" vertex="1">
          <mxGeometry y="78" width="140" height="26" as="geometry" />
        </mxCell>
        <mxCell id="_E1DJ1xyI4-SarhDE-Af-27" value="near_set           int(11)" style="text;strokeColor=none;fillColor=none;align=left;verticalAlign=top;spacingLeft=4;spacingRight=4;overflow=hidden;rotatable=0;points=[[0,0.5],[1,0.5]];portConstraint=eastwest;" parent="_E1DJ1xyI4-SarhDE-Af-23" vertex="1">
          <mxGeometry y="104" width="140" height="26" as="geometry" />
        </mxCell>
        <mxCell id="_E1DJ1xyI4-SarhDE-Af-28" value="mall_id             int(11)" style="text;strokeColor=none;fillColor=none;align=left;verticalAlign=top;spacingLeft=4;spacingRight=4;overflow=hidden;rotatable=0;points=[[0,0.5],[1,0.5]];portConstraint=eastwest;" parent="_E1DJ1xyI4-SarhDE-Af-23" vertex="1">
          <mxGeometry y="130" width="140" height="26" as="geometry" />
        </mxCell>
        <mxCell id="_E1DJ1xyI4-SarhDE-Af-29" value="type                  int(11)" style="text;strokeColor=none;fillColor=none;align=left;verticalAlign=top;spacingLeft=4;spacingRight=4;overflow=hidden;rotatable=0;points=[[0,0.5],[1,0.5]];portConstraint=eastwest;" parent="_E1DJ1xyI4-SarhDE-Af-23" vertex="1">
          <mxGeometry y="156" width="140" height="26" as="geometry" />
        </mxCell>
        <mxCell id="_E1DJ1xyI4-SarhDE-Af-30" value="type_id             int(11)" style="text;strokeColor=none;fillColor=none;align=left;verticalAlign=top;spacingLeft=4;spacingRight=4;overflow=hidden;rotatable=0;points=[[0,0.5],[1,0.5]];portConstraint=eastwest;" parent="_E1DJ1xyI4-SarhDE-Af-23" vertex="1">
          <mxGeometry y="182" width="140" height="26" as="geometry" />
        </mxCell>
        <mxCell id="_E1DJ1xyI4-SarhDE-Af-31" style="edgeStyle=orthogonalEdgeStyle;rounded=0;orthogonalLoop=1;jettySize=auto;html=1;entryX=0;entryY=0.5;entryDx=0;entryDy=0;" parent="_E1DJ1xyI4-SarhDE-Af-1" source="_E1DJ1xyI4-SarhDE-Af-27" target="_E1DJ1xyI4-SarhDE-Af-36" edge="1">
          <mxGeometry relative="1" as="geometry" />
        </mxCell>
        <mxCell id="_E1DJ1xyI4-SarhDE-Af-32" value="商场表" style="swimlane;fontStyle=0;childLayout=stackLayout;horizontal=1;startSize=26;fillColor=none;horizontalStack=0;resizeParent=1;resizeParentMax=0;resizeLast=0;collapsible=1;marginBottom=0;" parent="_E1DJ1xyI4-SarhDE-Af-1" vertex="1">
          <mxGeometry x="1090" y="630" width="180" height="208" as="geometry" />
        </mxCell>
        <mxCell id="_E1DJ1xyI4-SarhDE-Af-33" value="id（PK）                int(11)" style="text;strokeColor=none;fillColor=none;align=left;verticalAlign=top;spacingLeft=4;spacingRight=4;overflow=hidden;rotatable=0;points=[[0,0.5],[1,0.5]];portConstraint=eastwest;" parent="_E1DJ1xyI4-SarhDE-Af-32" vertex="1">
          <mxGeometry y="26" width="180" height="26" as="geometry" />
        </mxCell>
        <mxCell id="_E1DJ1xyI4-SarhDE-Af-34" value="name                     string(64)" style="text;strokeColor=none;fillColor=none;align=left;verticalAlign=top;spacingLeft=4;spacingRight=4;overflow=hidden;rotatable=0;points=[[0,0.5],[1,0.5]];portConstraint=eastwest;" parent="_E1DJ1xyI4-SarhDE-Af-32" vertex="1">
          <mxGeometry y="52" width="180" height="26" as="geometry" />
        </mxCell>
        <mxCell id="_E1DJ1xyI4-SarhDE-Af-35" value="address_code        string(64)" style="text;strokeColor=none;fillColor=none;align=left;verticalAlign=top;spacingLeft=4;spacingRight=4;overflow=hidden;rotatable=0;points=[[0,0.5],[1,0.5]];portConstraint=eastwest;" parent="_E1DJ1xyI4-SarhDE-Af-32" vertex="1">
          <mxGeometry y="78" width="180" height="26" as="geometry" />
        </mxCell>
        <mxCell id="_E1DJ1xyI4-SarhDE-Af-36" value="address                  string(64)" style="text;strokeColor=none;fillColor=none;align=left;verticalAlign=top;spacingLeft=4;spacingRight=4;overflow=hidden;rotatable=0;points=[[0,0.5],[1,0.5]];portConstraint=eastwest;" parent="_E1DJ1xyI4-SarhDE-Af-32" vertex="1">
          <mxGeometry y="104" width="180" height="26" as="geometry" />
        </mxCell>
        <mxCell id="_E1DJ1xyI4-SarhDE-Af-37" value="token                     text" style="text;strokeColor=none;fillColor=none;align=left;verticalAlign=top;spacingLeft=4;spacingRight=4;overflow=hidden;rotatable=0;points=[[0,0.5],[1,0.5]];portConstraint=eastwest;" parent="_E1DJ1xyI4-SarhDE-Af-32" vertex="1">
          <mxGeometry y="130" width="180" height="26" as="geometry" />
        </mxCell>
        <mxCell id="_E1DJ1xyI4-SarhDE-Af-38" value="longitude              numeric(11,6)" style="text;strokeColor=none;fillColor=none;align=left;verticalAlign=top;spacingLeft=4;spacingRight=4;overflow=hidden;rotatable=0;points=[[0,0.5],[1,0.5]];portConstraint=eastwest;" parent="_E1DJ1xyI4-SarhDE-Af-32" vertex="1">
          <mxGeometry y="156" width="180" height="26" as="geometry" />
        </mxCell>
        <mxCell id="_E1DJ1xyI4-SarhDE-Af-39" value="latitude                 numeric(11,6)" style="text;strokeColor=none;fillColor=none;align=left;verticalAlign=top;spacingLeft=4;spacingRight=4;overflow=hidden;rotatable=0;points=[[0,0.5],[1,0.5]];portConstraint=eastwest;" parent="_E1DJ1xyI4-SarhDE-Af-32" vertex="1">
          <mxGeometry y="182" width="180" height="26" as="geometry" />
        </mxCell>
        <mxCell id="_E1DJ1xyI4-SarhDE-Af-40" style="edgeStyle=orthogonalEdgeStyle;rounded=0;orthogonalLoop=1;jettySize=auto;html=1;entryX=0.5;entryY=0;entryDx=0;entryDy=0;exitX=0.5;exitY=0;exitDx=0;exitDy=0;" parent="_E1DJ1xyI4-SarhDE-Af-1" source="_E1DJ1xyI4-SarhDE-Af-52" target="_E1DJ1xyI4-SarhDE-Af-62" edge="1">
          <mxGeometry relative="1" as="geometry">
            <Array as="points">
              <mxPoint x="1120" y="230" />
              <mxPoint x="760" y="230" />
            </Array>
          </mxGeometry>
        </mxCell>
        <mxCell id="_E1DJ1xyI4-SarhDE-Af-41" style="edgeStyle=orthogonalEdgeStyle;rounded=0;orthogonalLoop=1;jettySize=auto;html=1;entryX=0.457;entryY=-0.005;entryDx=0;entryDy=0;entryPerimeter=0;exitX=0.5;exitY=0;exitDx=0;exitDy=0;" parent="_E1DJ1xyI4-SarhDE-Af-1" source="_E1DJ1xyI4-SarhDE-Af-52" target="_E1DJ1xyI4-SarhDE-Af-43" edge="1">
          <mxGeometry relative="1" as="geometry">
            <Array as="points">
              <mxPoint x="1120" y="230" />
              <mxPoint x="394" y="230" />
            </Array>
          </mxGeometry>
        </mxCell>
        <mxCell id="_E1DJ1xyI4-SarhDE-Af-42" style="edgeStyle=orthogonalEdgeStyle;rounded=0;orthogonalLoop=1;jettySize=auto;html=1;entryX=0.25;entryY=0;entryDx=0;entryDy=0;" parent="_E1DJ1xyI4-SarhDE-Af-1" source="_E1DJ1xyI4-SarhDE-Af-43" target="_E1DJ1xyI4-SarhDE-Af-23" edge="1">
          <mxGeometry relative="1" as="geometry">
            <Array as="points">
              <mxPoint x="400" y="590" />
              <mxPoint x="895" y="590" />
            </Array>
          </mxGeometry>
        </mxCell>
        <mxCell id="_E1DJ1xyI4-SarhDE-Af-43" value="楼层表" style="swimlane;fontStyle=0;childLayout=stackLayout;horizontal=1;startSize=26;fillColor=none;horizontalStack=0;resizeParent=1;resizeParentMax=0;resizeLast=0;collapsible=1;marginBottom=0;" parent="_E1DJ1xyI4-SarhDE-Af-1" vertex="1">
          <mxGeometry x="330" y="269.94" width="140" height="208" as="geometry" />
        </mxCell>
        <mxCell id="_E1DJ1xyI4-SarhDE-Af-44" value="id（PK）         int(11)" style="text;strokeColor=none;fillColor=none;align=left;verticalAlign=top;spacingLeft=4;spacingRight=4;overflow=hidden;rotatable=0;points=[[0,0.5],[1,0.5]];portConstraint=eastwest;" parent="_E1DJ1xyI4-SarhDE-Af-43" vertex="1">
          <mxGeometry y="26" width="140" height="26" as="geometry" />
        </mxCell>
        <mxCell id="_E1DJ1xyI4-SarhDE-Af-45" value="name               string(64)" style="text;strokeColor=none;fillColor=none;align=left;verticalAlign=top;spacingLeft=4;spacingRight=4;overflow=hidden;rotatable=0;points=[[0,0.5],[1,0.5]];portConstraint=eastwest;" parent="_E1DJ1xyI4-SarhDE-Af-43" vertex="1">
          <mxGeometry y="52" width="140" height="26" as="geometry" />
        </mxCell>
        <mxCell id="_E1DJ1xyI4-SarhDE-Af-46" value="plan                 string(64)" style="text;strokeColor=none;fillColor=none;align=left;verticalAlign=top;spacingLeft=4;spacingRight=4;overflow=hidden;rotatable=0;points=[[0,0.5],[1,0.5]];portConstraint=eastwest;" parent="_E1DJ1xyI4-SarhDE-Af-43" vertex="1">
          <mxGeometry y="78" width="140" height="26" as="geometry" />
        </mxCell>
        <mxCell id="_E1DJ1xyI4-SarhDE-Af-47" value="size                   int[]" style="text;strokeColor=none;fillColor=none;align=left;verticalAlign=top;spacingLeft=4;spacingRight=4;overflow=hidden;rotatable=0;points=[[0,0.5],[1,0.5]];portConstraint=eastwest;" parent="_E1DJ1xyI4-SarhDE-Af-43" vertex="1">
          <mxGeometry y="104" width="140" height="26" as="geometry" />
        </mxCell>
        <mxCell id="_E1DJ1xyI4-SarhDE-Af-48" value="coordinate         text" style="text;strokeColor=none;fillColor=none;align=left;verticalAlign=top;spacingLeft=4;spacingRight=4;overflow=hidden;rotatable=0;points=[[0,0.5],[1,0.5]];portConstraint=eastwest;" parent="_E1DJ1xyI4-SarhDE-Af-43" vertex="1">
          <mxGeometry y="130" width="140" height="26" as="geometry" />
        </mxCell>
        <mxCell id="_E1DJ1xyI4-SarhDE-Af-49" value="entity_id            int(11)" style="text;strokeColor=none;fillColor=none;align=left;verticalAlign=top;spacingLeft=4;spacingRight=4;overflow=hidden;rotatable=0;points=[[0,0.5],[1,0.5]];portConstraint=eastwest;" parent="_E1DJ1xyI4-SarhDE-Af-43" vertex="1">
          <mxGeometry y="156" width="140" height="26" as="geometry" />
        </mxCell>
        <mxCell id="_E1DJ1xyI4-SarhDE-Af-50" value="mall_id              int(11)" style="text;strokeColor=none;fillColor=none;align=left;verticalAlign=top;spacingLeft=4;spacingRight=4;overflow=hidden;rotatable=0;points=[[0,0.5],[1,0.5]];portConstraint=eastwest;" parent="_E1DJ1xyI4-SarhDE-Af-43" vertex="1">
          <mxGeometry y="182" width="140" height="26" as="geometry" />
        </mxCell>
        <mxCell id="_E1DJ1xyI4-SarhDE-Af-51" style="edgeStyle=orthogonalEdgeStyle;rounded=0;orthogonalLoop=1;jettySize=auto;html=1;entryX=0.75;entryY=0;entryDx=0;entryDy=0;" parent="_E1DJ1xyI4-SarhDE-Af-1" source="_E1DJ1xyI4-SarhDE-Af-52" target="_E1DJ1xyI4-SarhDE-Af-23" edge="1">
          <mxGeometry relative="1" as="geometry" />
        </mxCell>
        <mxCell id="_E1DJ1xyI4-SarhDE-Af-52" value="店铺表" style="swimlane;fontStyle=0;childLayout=stackLayout;horizontal=1;startSize=26;fillColor=none;horizontalStack=0;resizeParent=1;resizeParentMax=0;resizeLast=0;collapsible=1;marginBottom=0;" parent="_E1DJ1xyI4-SarhDE-Af-1" vertex="1">
          <mxGeometry x="1050" y="269.94" width="140" height="234" as="geometry" />
        </mxCell>
        <mxCell id="_E1DJ1xyI4-SarhDE-Af-53" value="id（PK）          int(11)" style="text;strokeColor=none;fillColor=none;align=left;verticalAlign=top;spacingLeft=4;spacingRight=4;overflow=hidden;rotatable=0;points=[[0,0.5],[1,0.5]];portConstraint=eastwest;" parent="_E1DJ1xyI4-SarhDE-Af-52" vertex="1">
          <mxGeometry y="26" width="140" height="26" as="geometry" />
        </mxCell>
        <mxCell id="_E1DJ1xyI4-SarhDE-Af-54" value="name               string(64)" style="text;strokeColor=none;fillColor=none;align=left;verticalAlign=top;spacingLeft=4;spacingRight=4;overflow=hidden;rotatable=0;points=[[0,0.5],[1,0.5]];portConstraint=eastwest;" parent="_E1DJ1xyI4-SarhDE-Af-52" vertex="1">
          <mxGeometry y="52" width="140" height="26" as="geometry" />
        </mxCell>
        <mxCell id="_E1DJ1xyI4-SarhDE-Af-55" value="mall_id             int(11)" style="text;strokeColor=none;fillColor=none;align=left;verticalAlign=top;spacingLeft=4;spacingRight=4;overflow=hidden;rotatable=0;points=[[0,0.5],[1,0.5]];portConstraint=eastwest;" parent="_E1DJ1xyI4-SarhDE-Af-52" vertex="1">
          <mxGeometry y="78" width="140" height="26" as="geometry" />
        </mxCell>
        <mxCell id="_E1DJ1xyI4-SarhDE-Af-56" value="floor_id            int(11)" style="text;strokeColor=none;fillColor=none;align=left;verticalAlign=top;spacingLeft=4;spacingRight=4;overflow=hidden;rotatable=0;points=[[0,0.5],[1,0.5]];portConstraint=eastwest;" parent="_E1DJ1xyI4-SarhDE-Af-52" vertex="1">
          <mxGeometry y="104" width="140" height="26" as="geometry" />
        </mxCell>
        <mxCell id="_E1DJ1xyI4-SarhDE-Af-57" value="coordinate        text" style="text;strokeColor=none;fillColor=none;align=left;verticalAlign=top;spacingLeft=4;spacingRight=4;overflow=hidden;rotatable=0;points=[[0,0.5],[1,0.5]];portConstraint=eastwest;" parent="_E1DJ1xyI4-SarhDE-Af-52" vertex="1">
          <mxGeometry y="130" width="140" height="26" as="geometry" />
        </mxCell>
        <mxCell id="_E1DJ1xyI4-SarhDE-Af-58" value="bussiness_id    int(11)" style="text;strokeColor=none;fillColor=none;align=left;verticalAlign=top;spacingLeft=4;spacingRight=4;overflow=hidden;rotatable=0;points=[[0,0.5],[1,0.5]];portConstraint=eastwest;" parent="_E1DJ1xyI4-SarhDE-Af-52" vertex="1">
          <mxGeometry y="156" width="140" height="26" as="geometry" />
        </mxCell>
        <mxCell id="_E1DJ1xyI4-SarhDE-Af-59" value="logo                 string(64)" style="text;strokeColor=none;fillColor=none;align=left;verticalAlign=top;spacingLeft=4;spacingRight=4;overflow=hidden;rotatable=0;points=[[0,0.5],[1,0.5]];portConstraint=eastwest;" parent="_E1DJ1xyI4-SarhDE-Af-52" vertex="1">
          <mxGeometry y="182" width="140" height="26" as="geometry" />
        </mxCell>
        <mxCell id="_E1DJ1xyI4-SarhDE-Af-60" value="entity_id            int(11)" style="text;strokeColor=none;fillColor=none;align=left;verticalAlign=top;spacingLeft=4;spacingRight=4;overflow=hidden;rotatable=0;points=[[0,0.5],[1,0.5]];portConstraint=eastwest;" parent="_E1DJ1xyI4-SarhDE-Af-52" vertex="1">
          <mxGeometry y="208" width="140" height="26" as="geometry" />
        </mxCell>
        <mxCell id="_E1DJ1xyI4-SarhDE-Af-61" style="edgeStyle=orthogonalEdgeStyle;rounded=0;orthogonalLoop=1;jettySize=auto;html=1;entryX=0.5;entryY=0;entryDx=0;entryDy=0;" parent="_E1DJ1xyI4-SarhDE-Af-1" source="_E1DJ1xyI4-SarhDE-Af-62" target="_E1DJ1xyI4-SarhDE-Af-23" edge="1">
          <mxGeometry relative="1" as="geometry">
            <Array as="points">
              <mxPoint x="760" y="530" />
              <mxPoint x="930" y="530" />
            </Array>
          </mxGeometry>
        </mxCell>
        <mxCell id="_E1DJ1xyI4-SarhDE-Af-62" value="业态表" style="swimlane;fontStyle=0;childLayout=stackLayout;horizontal=1;startSize=26;fillColor=none;horizontalStack=0;resizeParent=1;resizeParentMax=0;resizeLast=0;collapsible=1;marginBottom=0;" parent="_E1DJ1xyI4-SarhDE-Af-1" vertex="1">
          <mxGeometry x="690" y="269.94" width="140" height="182" as="geometry" />
        </mxCell>
        <mxCell id="_E1DJ1xyI4-SarhDE-Af-63" value="id（PK）          int(11)" style="text;strokeColor=none;fillColor=none;align=left;verticalAlign=top;spacingLeft=4;spacingRight=4;overflow=hidden;rotatable=0;points=[[0,0.5],[1,0.5]];portConstraint=eastwest;" parent="_E1DJ1xyI4-SarhDE-Af-62" vertex="1">
          <mxGeometry y="26" width="140" height="26" as="geometry" />
        </mxCell>
        <mxCell id="_E1DJ1xyI4-SarhDE-Af-64" value="name               string(64)" style="text;strokeColor=none;fillColor=none;align=left;verticalAlign=top;spacingLeft=4;spacingRight=4;overflow=hidden;rotatable=0;points=[[0,0.5],[1,0.5]];portConstraint=eastwest;" parent="_E1DJ1xyI4-SarhDE-Af-62" vertex="1">
          <mxGeometry y="52" width="140" height="26" as="geometry" />
        </mxCell>
        <mxCell id="_E1DJ1xyI4-SarhDE-Af-65" value="mall_id             int(11)" style="text;strokeColor=none;fillColor=none;align=left;verticalAlign=top;spacingLeft=4;spacingRight=4;overflow=hidden;rotatable=0;points=[[0,0.5],[1,0.5]];portConstraint=eastwest;" parent="_E1DJ1xyI4-SarhDE-Af-62" vertex="1">
          <mxGeometry y="78" width="140" height="26" as="geometry" />
        </mxCell>
        <mxCell id="_E1DJ1xyI4-SarhDE-Af-66" value="level                 int(11)" style="text;strokeColor=none;fillColor=none;align=left;verticalAlign=top;spacingLeft=4;spacingRight=4;overflow=hidden;rotatable=0;points=[[0,0.5],[1,0.5]];portConstraint=eastwest;" parent="_E1DJ1xyI4-SarhDE-Af-62" vertex="1">
          <mxGeometry y="104" width="140" height="26" as="geometry" />
        </mxCell>
        <mxCell id="_E1DJ1xyI4-SarhDE-Af-67" value="parent_id         int(11)" style="text;strokeColor=none;fillColor=none;align=left;verticalAlign=top;spacingLeft=4;spacingRight=4;overflow=hidden;rotatable=0;points=[[0,0.5],[1,0.5]];portConstraint=eastwest;" parent="_E1DJ1xyI4-SarhDE-Af-62" vertex="1">
          <mxGeometry y="130" width="140" height="26" as="geometry" />
        </mxCell>
        <mxCell id="_E1DJ1xyI4-SarhDE-Af-68" value="entity_id            int(11)" style="text;strokeColor=none;fillColor=none;align=left;verticalAlign=top;spacingLeft=4;spacingRight=4;overflow=hidden;rotatable=0;points=[[0,0.5],[1,0.5]];portConstraint=eastwest;" parent="_E1DJ1xyI4-SarhDE-Af-62" vertex="1">
          <mxGeometry y="156" width="140" height="26" as="geometry" />
        </mxCell>
      </root>
    </mxGraphModel>
  </diagram>
</mxfile>
